<svg width="18" height="24" viewBox="0 0 18 24" fill="none" xmlns="http://www.w3.org/2000/svg">
<path d="M16.0595 7.05938C16.6454 6.47344 16.6454 5.52188 16.0595 4.93594C15.4735 4.35001 14.522 4.35001 13.936 4.93594L9.0001 9.87657L4.05947 4.94063C3.47354 4.35469 2.52197 4.35469 1.93604 4.94063C1.3501 5.52657 1.3501 6.47813 1.93604 7.06407L6.87666 12L1.94072 16.9406C1.35479 17.5266 1.35479 18.4781 1.94072 19.0641C2.52666 19.65 3.47822 19.65 4.06416 19.0641L9.0001 14.1234L13.9407 19.0594C14.5267 19.6453 15.4782 19.6453 16.0642 19.0594C16.6501 18.4734 16.6501 17.5219 16.0642 16.9359L11.1235 12L16.0595 7.05938Z" />
</svg>